# xmcd CD database file
# Copyright (C) 1993-1996 Ti Kan
#
# Track frame offsets:
# 182
# 12307
# 18045
# 29420
# 39190
# 47870
# 59362
# 66300
# 75415
# 84282
# 95447
# 107675
# 121570
# 132770
# 142895
# 153482
# 163787
# 174500
# 191450
# 201940
# 215820
# 227030
# 239527
# 250090
#
# Disc length: 3479 seconds
# Revision: 0
# Processed by: cddbd v1.4b41PL1 Copyright (c) Steve Scherf et al.
# Submitted via: CDSpectrumPro v3.2.327
#
DISCID=370d9518
DTITLE=Various Artist - Willie Nelson and Waylon Jennings - Original Outlaws
DYEAR=1900
DGENRE=
TTITLE0=Waylon Jennings - Crying
TTITLE1=Willie Nelson - The Ghost
TTITLE2=Waylon Jennings - Sally Was A Good Old Girl
TTITLE3=Willie Nelson - Let's Pretend
TTITLE4=Waylon Jennings - Abilene
TTITLE5=Willie Nelson - I'm Gonna Lose A Lot Of Teardrops
TTITLE6=Waylon Jennings - It's So Easy
TTITLE7=Willie Nelson - Waiting Time
TTITLE8=Waylon Jennings - Love's Gonna Live Here
TTITLE9=Willie Nelson - Go Away
TTITLE10=Waylon Jennings - Don't Think Twice
TTITLE11=Willie Nelson - No Tomorrow In Sight
TTITLE12=Waylon Jennings - Dream Baby
TTITLE13=Willie Nelson - A New Way To Cry
TTITLE14=Waylon Jennings - Lorena
TTITLE15=Willie Nelson - Broken Promises
TTITLE16=Waylon Jennings - Burning Memories
TTITLE17=Willie Nelson - Let My Mind Wander
TTITLE18=Waylon Jennings - White Lightning
TTITLE19=Willie Nelson - A Moment Isn't Very Long
TTITLE20=Waylon Jennings - Big Mamou
TTITLE21=Willie Nelson - I Can't Find The Time
TTITLE22=Waylon Jennings - Money
TTITLE23=Willie Nelson - I Feel Sorry For Him
EXTD=
EXTT0=
EXTT1=
EXTT2=
EXTT3=
EXTT4=
EXTT5=
EXTT6=
EXTT7=
EXTT8=
EXTT9=
EXTT10=
EXTT11=
EXTT12=
EXTT13=
EXTT14=
EXTT15=
EXTT16=
EXTT17=
EXTT18=
EXTT19=
EXTT20=
EXTT21=
EXTT22=
EXTT23=
PLAYORDER=
